<?xml version="1.0" encoding="utf-8"?>
<!-- Generator: Adobe Illustrator 21.0.0, SVG Export Plug-In . SVG Version: 6.00 Build 0)  -->
<svg version="1.1" id="Camada_1" xmlns="http://www.w3.org/2000/svg" xmlns:xlink="http://www.w3.org/1999/xlink" x="0px" y="0px"
	 viewBox="0 0 1920 1080" style="enable-background:new 0 0 1920 1080;" xml:space="preserve">
<style type="text/css">
	.st0{fill:#00BF0C;}
	.st1{fill:#FF0000;}
	.st2{fill:#2AD8FF;}
	.st3{fill:none;stroke:#15FF1D;stroke-width:2;stroke-miterlimit:10;}
	.st4{fill:#BF00AA;}
	.st5{fill:#00FFFB;}
	.st6{fill:#D41700;}
</style>
<g>
	<rect x="77" y="85" class="st0" width="253" height="253"/>
</g>
<circle class="st1" cx="583.5" cy="258.5" r="145.5"/>
<ellipse class="st2" cx="1174.5" cy="257.5" rx="259.5" ry="46.5"/>
<line class="st3" x1="213" y1="708" x2="960" y2="574"/>
<polygon class="st4" points="1356.5,503 1442.1,458 1425.7,553.3 1495,620.9 1399.3,634.8 1356.5,721.5 1313.7,634.8 1217.9,620.9 
	1287.2,553.3 1270.9,458 "/>
<path class="st5" d="M543,861l227-103l155,134l-196,39l46-75l-157,86c0,0-203,48-212,39S147,742,147,742l291,32L543,861z"/>
<path class="st6" d="M1125,795c93-53,19-69,125,47s209,20,209,20s-35-183,70-83s-202,11-202,11s-109-88-109-95s-66-106-125,47
	S1032,848,1125,795z"/>
</svg>
